# xmcd
#
# Track frame offsets:
#	150
#	14774
#	31650
#	48498
#	66031
#	70093
#	90227
#	108683
#	123950
#	142429
#	160327
#	180024
#	196481
#
# Disc length: 2849 seconds
# Revision: 1
# Processed by: cddbd v1.5.2PL0 Copyright (c) Steve Scherf et al.
# Submitted via: dBpowerAMP V12.0
#
DISCID=b00b1f0d
DTITLE=Jeff Brown - Hard to Let Go
DYEAR=2012
DGENRE=Country
TTITLE0=Young Jillaroo
TTITLE1=Little Bulldog
TTITLE2=The Clydesdales
TTITLE3=Paddy's Mistake
TTITLE4=Harry Thompson Monologue
TTITLE5=Harry Thompson (a man with a past)
TTITLE6=Come in Spinner
TTITLE7=The legendary Beer
TTITLE8=Soldier on The Western Front
TTITLE9=Tommy Fitz and Co
TTITLE10=Hard to Let Go
TTITLE11=Cry a Million Tears
TTITLE12=I Love Australia
EXTD=
EXTT0=
EXTT1=
EXTT2=
EXTT3=
EXTT4=
EXTT5=
EXTT6=
EXTT7=
EXTT8=
EXTT9=
EXTT10=
EXTT11=
EXTT12=
PLAYORDER=
